<svg width="98" height="40" viewBox="0 0 98 40" fill="none" xmlns="http://www.w3.org/2000/svg"> <path d="M38.0071 22.6048C36.8321 21.9135 36.4286 25.4264 29.7859 27.5662C29.4576 27.6724 29.3298 28.0665 29.5316 28.3459C30.0236 29.0253 30.8308 30.426 30.9418 31.9902C30.9705 32.3902 30.3507 32.4582 30.3018 31.94H30.3042C30.3042 31.94 30.4343 28.076 25.3106 25.6604C25.1028 25.5625 24.8628 25.7142 24.8604 25.9446C24.8425 28.1847 24.8616 29.4456 27.4277 32.2994C27.6951 32.5968 27.2175 33.0171 26.9369 32.6971C25.5267 31.0887 24.8616 29.8922 24.5511 28.777C24.4938 28.5704 24.3099 28.4247 24.0962 28.4128C23.4645 28.3781 22.1475 28.291 21.1457 28.1214C20.9152 28.082 20.6895 28.205 20.5988 28.4211C20.1176 29.5662 19.2507 30.703 17.4058 32.1693C17.2613 32.2839 17.0452 32.2505 16.9437 32.0917C16.7312 31.7609 17.2673 31.4672 17.573 31.2128C20.0686 29.1399 20.3504 27.9148 20.7098 25.8312C20.7492 25.6043 20.5403 25.4121 20.3182 25.4718C14.9305 26.913 14.2571 30.6576 14.22 30.8964C14.1771 31.0481 14.0302 31.1448 13.8738 31.1245C13.8738 31.1245 13.5275 31.0409 13.6087 30.7316C13.7281 30.2719 14.0266 29.4086 14.7287 28.4522C15.0774 27.9769 15.5562 27.4432 16.2058 26.9202C16.4327 26.7363 16.4852 26.39 16.2703 26.1918C14.7836 24.827 14.2726 22.9989 14.2332 21.8024C14.3227 20.7779 15.512 20.0961 16.5055 20.5928C16.5043 20.5928 17.9646 21.4478 18.9211 21.7941C29.2259 25.5339 36.573 18.1319 36.5778 18.1271C36.6841 18.0017 36.622 17.8083 36.4644 17.7641C35.4184 17.474 34.1168 17.2351 32.8428 17.4214C30.2731 17.7975 27.3763 20.0925 24.6096 18.7313C24.2252 18.5426 24.4974 17.9695 24.8771 18.1582C27.3369 19.3821 30.1167 17.1814 32.7508 16.7969C34.081 16.6023 35.4148 16.8292 36.5014 17.1193C36.7378 17.1826 37.2489 16.8936 37.1844 16.6572C37.1677 16.5963 37.1366 16.5056 37.1307 16.4912C36.6196 15.1861 35.8638 13.8261 35.0661 12.6989C31.4314 7.56683 24.7494 4.47421 17.7676 5.73275C17.2888 5.81872 17.6363 6.56501 17.7676 6.99487C18.0996 8.07788 18.1032 8.70477 18.1032 8.72984C18.1032 9.1394 17.4715 9.15015 17.4703 8.72984C17.4703 8.71909 17.3879 6.92562 16.2655 5.41155C13.8821 2.19713 10.6987 0.631714 9.15957 0.0227424C8.93628 -0.0656182 8.70105 0.115878 8.72971 0.353496C8.96853 2.33086 10.2963 7.79131 13.4332 10.072C14.4648 10.8218 15.561 10.8529 15.7962 10.8457C15.9813 10.8397 16.0529 11.0189 16.0529 11.0189C16.1377 11.2398 15.9753 11.4774 15.7377 11.4774H15.7294C13.8451 11.4774 12.3955 10.0672 12.1042 9.74241C11.8128 9.41762 9.19062 5.20855 0.359281 6.88263C0.127631 6.92681 0.0237476 7.20264 0.169424 7.38772C3.07818 11.0869 6.61501 12.4696 7.56191 12.6535C10.0492 13.1383 12.0003 12.7371 12.0194 12.7335C12.417 12.6488 12.5639 13.2649 12.1495 13.3521C12.097 13.3628 11.2982 13.5276 10.0742 13.5276C9.40794 13.5276 8.61866 13.4691 7.75296 13.3174C4.19583 12.3658 3.22385 12.8732 0.226739 14.4625C-0.0598378 14.6142 -0.0789428 15.0202 0.193305 15.1969C2.17666 16.4924 3.95104 17.1671 5.45796 17.4799C6.41919 17.6793 8.6306 18.0459 10.6737 17.1528C11.0152 17.0035 11.279 17.5826 10.8874 17.751C10.1363 18.0746 8.0479 18.8041 4.86809 17.9898C4.58748 17.9182 4.30449 18.0985 4.24837 18.3826C4.08597 19.2054 3.96537 19.8931 3.7791 21.0621C2.591 28.5262 8.90882 39.9701 20.8328 39.9999C36.419 40.0393 39.3146 23.375 38.0095 22.6084L38.0071 22.6048ZM27.5972 12.3622C28.4522 12.2547 29.1698 12.9735 29.0623 13.8285C28.9895 14.41 28.519 14.8805 27.9363 14.9545C27.0814 15.062 26.3625 14.3443 26.47 13.4894C26.5428 12.9067 27.0145 12.4362 27.5972 12.3622Z" fill="#FAFAFB"/> <path d="M79.8071 24.9827L87.1124 15.0039H82.0018L77.2315 21.4303L72.5018 15.0039H67.3721L74.6762 24.9827L67.3721 35.0021H72.5006L77.2315 28.4956L81.9815 35.0021H87.1112L79.8059 24.9827H79.8071Z" fill="#FAFAFB"/> <path d="M97.2696 8.47307C96.4971 8.5662 94.3644 9.08443 93.4737 10.3095C93.1919 10.6976 93.1704 11.1072 93.1716 11.2194C93.1716 11.2194 93.1716 11.229 93.1716 11.2325C93.1752 11.346 93.0223 11.377 92.9554 11.2994C92.9495 11.2922 92.9435 11.2839 92.9387 11.2743C92.9387 11.2743 92.9244 11.2457 92.9256 11.2099C92.9471 10.503 93.4211 9.98236 93.4211 9.98236C93.6635 9.71489 93.8964 9.57638 93.9895 9.51548C95.217 8.7083 95.1573 6.06942 94.9854 5.16194C94.9686 5.07119 94.8636 5.03536 94.7883 5.0879C93.2229 6.17091 92.6342 7.44618 92.4301 8.35963C92.3118 8.88621 92.4348 9.74952 92.436 9.75668C92.4695 9.91191 92.2283 9.96923 92.1948 9.80803C92.1841 9.75549 91.993 9.01159 92.1494 8.42889C92.4945 7.29692 92.3106 6.32137 91.6909 5.15119C91.6312 5.03894 91.4736 5.03178 91.4043 5.13805C90.8981 5.913 90.7058 6.60555 90.584 7.19423C90.547 7.37334 90.4957 7.66349 90.4885 8.0038L90.4873 35.0004H94.6391V11.752C95.0928 11.5824 96.5842 10.7036 97.4022 8.63904C97.4368 8.55188 97.3663 8.45993 97.2732 8.47188L97.2696 8.47307ZM90.498 8.36918C90.498 8.36918 90.498 8.36321 90.498 8.36082C90.498 8.36321 90.498 8.3656 90.498 8.36799V8.36918ZM90.4885 8.23187C90.4885 8.23187 90.4885 8.2259 90.4885 8.22351C90.4885 8.2259 90.4885 8.22948 90.4885 8.23187Z" fill="#FAFAFB"/> <path d="M66.4207 18.1155C65.6493 18.2087 63.7293 18.7269 62.8385 19.952C62.5567 20.3401 62.5352 20.7496 62.5364 20.8619C62.5364 20.8619 62.5364 20.8714 62.5364 20.875C62.54 20.9884 62.3871 21.0195 62.3203 20.9419C62.3143 20.9347 62.3083 20.9263 62.3035 20.9168C62.3035 20.9168 62.2892 20.8881 62.2904 20.8523C62.3119 20.1454 62.7859 19.6248 62.7859 19.6248C63.0283 19.3573 63.2612 19.2188 63.3543 19.1579C64.583 18.3507 64.3657 15.9865 64.1926 15.0802C64.1758 14.993 64.0743 14.9524 64.0015 15.0026C62.4313 16.0868 61.9979 17.0874 61.7937 18.0021C61.6755 18.5287 61.7984 19.392 61.7996 19.3991C61.8331 19.5544 61.5919 19.6117 61.5584 19.4505C61.5477 19.3979 61.3566 18.654 61.5131 18.0713C61.8581 16.9394 61.7005 16.2611 61.0796 15.091C61.0199 14.9787 60.8623 14.9716 60.793 15.0778C60.2868 15.8528 60.0694 16.2492 59.9464 16.8367C59.913 16.9967 59.8688 17.2462 59.8557 17.5412C59.8545 17.534 59.8521 17.5292 59.8509 17.5268C59.1834 16.7113 58.3822 16.0271 57.4461 15.4719C56.3344 14.8127 55.0543 14.4844 53.6035 14.4844C52.1527 14.4844 50.8452 14.7542 49.6022 15.2928C48.358 15.8313 47.263 16.574 46.3185 17.5185C45.374 18.463 44.6349 19.5639 44.1035 20.8213C43.571 22.0786 43.3047 23.4195 43.3047 24.8429C43.3047 26.2662 43.5769 27.7003 44.1226 28.9839C44.6683 30.2687 45.4301 31.4018 46.4081 32.3869C47.386 33.3721 48.5204 34.1398 49.8112 34.6927C51.102 35.2443 52.4787 35.5214 53.9427 35.5214C55.3003 35.5214 56.4777 35.2085 57.4759 34.5828C58.4742 33.9571 59.2658 33.1332 59.8509 32.1075C59.8509 32.1075 59.8509 32.0992 59.8509 32.0837C59.8509 33.8246 59.8509 35.0008 59.8509 35.0008H64.0027V21.3956C64.4648 21.2237 65.7353 20.3401 66.5497 18.2815C66.5843 18.1943 66.515 18.1024 66.4219 18.1143L66.4207 18.1155ZM58.9601 28.2961C58.4742 29.2812 57.7923 30.0621 56.9147 30.6412C56.0371 31.2203 55.0114 31.5093 53.8412 31.5093C52.671 31.5093 51.6692 31.2203 50.7175 30.6412C49.7658 30.0621 49.0004 29.2836 48.4225 28.3056C47.8433 27.3277 47.5544 26.2328 47.5544 25.022C47.5544 23.8112 47.8338 22.7341 48.3926 21.749C48.9514 20.7639 49.7097 19.9795 50.6685 19.3944C51.6262 18.8093 52.6841 18.5167 53.8424 18.5167C55.0006 18.5167 56.0347 18.8057 56.9063 19.3848C57.778 19.9639 58.4598 20.746 58.9518 21.7299C59.4437 22.715 59.6897 23.8124 59.6897 25.0232C59.6897 26.2339 59.4473 27.3122 58.9613 28.2961H58.9601Z" fill="#FAFAFB"/> </svg>