<svg width="100" height="100" viewBox="0 0 100 100" fill="none" xmlns="http://www.w3.org/2000/svg">
<path fill-rule="evenodd" clip-rule="evenodd" d="M20.8333 4.16699C16.413 4.16699 12.1738 5.92294 9.04821 9.04855C5.9226 12.1742 4.16666 16.4134 4.16666 20.8337V79.167C4.16666 83.5873 5.9226 87.8265 9.04821 90.9521C12.1738 94.0777 16.413 95.8336 20.8333 95.8336H79.1666C83.5869 95.8336 87.8261 94.0777 90.9518 90.9521C94.0774 87.8265 95.8333 83.5873 95.8333 79.167V20.8337C95.8333 16.4134 94.0774 12.1742 90.9518 9.04855C87.8261 5.92294 83.5869 4.16699 79.1666 4.16699H20.8333ZM62.5 27.0837H70.8333V67.8753C68.4791 68.692 62.6916 70.3336 58.3833 70.3336C53 70.3336 43.4583 67.5628 43.4583 54.642C43.4583 43.4462 52.7791 39.2253 62.5 39.2253V27.0837ZM62.5 46.3503V63.017C59.0416 63.017 52.0833 62.1295 52.0833 54.6837C52.0833 47.2378 59.0416 46.3503 62.5 46.3503ZM37.5 31.2503H29.1667V68.7503H37.5V31.2503Z" fill="#FAFAFB"/>
</svg>